<svg width="52" height="52" viewBox="0 0 52 52" fill="none" xmlns="http://www.w3.org/2000/svg">
<rect width="52" height="52" rx="12" fill="#2C7865"/>
<path d="M26 18.8L26 26L27.6667 26C29.5076 26 31 27.6118 31 29.6C31 31.5882 29.5076 33.2 27.6667 33.2H26V26H24.3333C22.4924 26 21 24.3882 21 22.4C21 20.4118 22.4924 18.8 24.3333 18.8H26Z" fill="#2C7865"/>
<path d="M26 17V35M31 21.5C30.63 19.9473 29.3249 18.8 27.7717 18.8H26H24.3333C22.4924 18.8 21 20.4118 21 22.4C21 24.3882 22.4924 26 24.3333 26H26L27.6667 26C29.5076 26 31 27.6118 31 29.6C31 31.5882 29.5076 33.2 27.6667 33.2H26H24.2283C22.6751 33.2 21.37 32.0527 21 30.5" stroke="white" stroke-width="2" stroke-linecap="round" stroke-linejoin="round"/>
</svg>
