<svg width="16" height="16" viewBox="0 0 16 16" fill="none" xmlns="http://www.w3.org/2000/svg">
<g clip-path="url(#clip0_80_3430)">
<path d="M15.3333 13.3333C15.1565 13.3333 14.987 13.4036 14.8619 13.5286C14.7369 13.6536 14.6667 13.8232 14.6667 14C14.6667 14.2293 14.212 14.6667 13.5 14.6667C13.3 14.6737 13.1009 14.6361 12.9172 14.5567C12.7336 14.4772 12.5698 14.3579 12.438 14.2073C12.464 14.1648 12.4925 14.1239 12.5233 14.0847C13.6105 12.9445 14.3417 11.512 14.6273 9.96267C14.7119 9.49653 14.6282 9.01551 14.3912 8.60529C14.1543 8.19507 13.7794 7.88229 13.3333 7.72267V6C13.3333 5.29276 13.0524 4.61448 12.5523 4.11438C12.0522 3.61428 11.3739 3.33333 10.6667 3.33333V2.66667C10.6667 1.95942 10.3857 1.28115 9.88562 0.781049C9.38552 0.280952 8.70724 0 8 0C7.29276 0 6.61448 0.280952 6.11438 0.781049C5.61428 1.28115 5.33333 1.95942 5.33333 2.66667V3.33333C4.62609 3.33333 3.94781 3.61428 3.44772 4.11438C2.94762 4.61448 2.66667 5.29276 2.66667 6V7.714C2.21506 7.86999 1.83422 8.1825 1.59308 8.59497C1.35193 9.00744 1.26641 9.49261 1.352 9.96267C1.64477 11.5139 2.38307 12.9462 3.47667 14.0847C3.50866 14.1249 3.53827 14.167 3.56533 14.2107C3.43336 14.3617 3.26907 14.4812 3.08465 14.5601C2.90023 14.6391 2.70041 14.6755 2.5 14.6667C1.774 14.6667 1.33333 14.204 1.33333 14C1.33333 13.8232 1.2631 13.6536 1.13807 13.5286C1.01305 13.4036 0.843478 13.3333 0.666667 13.3333C0.489856 13.3333 0.320286 13.4036 0.195262 13.5286C0.0702379 13.6536 0 13.8232 0 14C0 15.084 1.14533 16 2.5 16C3.17412 16.0061 3.82793 15.7695 4.342 15.3333C4.85473 15.7615 5.50105 15.997 6.16907 15.999C6.8371 16.0009 7.48478 15.7692 8 15.344C8.51709 15.7688 9.16605 16.0001 9.83525 15.9982C10.5045 15.9962 11.1521 15.7611 11.6667 15.3333C12.1777 15.7671 12.8271 16.0036 13.4973 16C14.8547 16 16 15.084 16 14C16 13.8232 15.9298 13.6536 15.8047 13.5286C15.6797 13.4036 15.5101 13.3333 15.3333 13.3333ZM6.66667 2.66667C6.66667 2.31304 6.80714 1.97391 7.05719 1.72386C7.30724 1.47381 7.64638 1.33333 8 1.33333C8.35362 1.33333 8.69276 1.47381 8.94281 1.72386C9.19286 1.97391 9.33333 2.31304 9.33333 2.66667V3.33333H6.66667V2.66667ZM5.33333 4.66667H10.6667C11.0203 4.66667 11.3594 4.80714 11.6095 5.05719C11.8595 5.30724 12 5.64638 12 6V7.28L8.632 6.17467C8.22257 6.03999 7.78077 6.03999 7.37133 6.17467L4 7.27533V6C4 5.64638 4.14048 5.30724 4.39052 5.05719C4.64057 4.80714 4.97971 4.66667 5.33333 4.66667ZM6.16667 14.6667C5.94384 14.6789 5.72166 14.6331 5.52176 14.534C5.32186 14.4348 5.15106 14.2855 5.026 14.1007C4.88713 13.7678 4.69632 13.4591 4.46067 13.186C3.54161 12.2345 2.91841 11.0367 2.66667 9.738C2.63588 9.57825 2.66351 9.41276 2.74452 9.27167C2.82553 9.13058 2.95452 9.02329 3.108 8.96933L7.33333 7.58867V14C7.33333 14.2293 6.87867 14.6667 6.16667 14.6667ZM9.83333 14.6667C9.10733 14.6667 8.66667 14.204 8.66667 14V7.58933L12.87 8.96867C13.024 9.0225 13.1535 9.12986 13.235 9.27119C13.3165 9.41252 13.3446 9.57841 13.314 9.73867C13.0695 11.0357 12.4529 12.2335 11.5393 13.186C11.3022 13.4594 11.1112 13.7697 10.974 14.1047C10.8489 14.2892 10.678 14.438 10.478 14.5365C10.278 14.635 10.0559 14.6799 9.83333 14.6667Z" fill="#071516"/>
</g>
<defs>
<clipPath id="clip0_80_3430">
<rect width="16" height="16" fill="white"/>
</clipPath>
</defs>
</svg>
